<svg xmlns="http://www.w3.org/2000/svg" fill="none" viewBox="0 0 80 80">
  <path fill-rule="evenodd" clip-rule="evenodd" d="M21.25 8.75a5 5 0 1110 0 5 5 0 01-10 0z" fill="#1F3C45"/>
  <path d="M53.018.66c1.665-.619 3.628.008 4.495 1.677 3.473 6.687 3.158 12.313.461 17.423a13.15 13.15 0 01-2.082 2.939c8.847 6.924 14.926 18.245 15.537 29.494a3.91 3.91 0 012.4 1.383l2.228 2.726c1.405 1.718 1.156 4.47-1.014 5.613-1.556.82-3.275 1.485-5.118 1.85-2.604 6.742-10.35 9.658-17.794 9.677l-38.922.1c-4.6.011-7.733-4.652-5.973-8.89l15.052-36.235c2.71-6.522 7.878-12.41 14.957-12.469a27.228 27.228 0 018.239 1.22 16.69 16.69 0 001.55-1.3c2.033-1.918 2.514-3.631 2.45-5.094-.07-1.563-.76-3.011-1.458-4.417-.939-1.891.108-3.884 1.899-4.549L53.018.66zM77.5 37.5a2.5 2.5 0 11-5 0 2.5 2.5 0 015 0zM8.078 23.369c.476-1.159 2.117-1.159 2.594 0l.785 1.91c.143.346.417.622.764.764l1.91.785c1.159.476 1.159 2.117 0 2.594l-1.91.785a1.402 1.402 0 00-.764.764l-.785 1.91c-.477 1.159-2.118 1.159-2.594 0l-.785-1.91a1.402 1.402 0 00-.764-.764l-1.91-.785c-1.159-.477-1.159-2.118 0-2.594l1.91-.785a1.4 1.4 0 00.764-.764l.785-1.91zm61.23-7.486c.483-1.177 2.15-1.177 2.634 0l.408.991c.145.352.424.631.776.776l.991.408c1.177.483 1.177 2.15 0 2.634l-.991.408a1.424 1.424 0 00-.776.776l-.408.991c-.483 1.177-2.15 1.177-2.634 0l-.408-.991a1.424 1.424 0 00-.776-.776l-.991-.408c-1.177-.483-1.177-2.15 0-2.634l.991-.408c.352-.145.631-.424.776-.776l.408-.991z" fill="#1F3C45"/>
  <path d="M17.931 45.422l6.666-16.046c.307-.74.643-1.459 1.005-2.15-2.318 7.437-.2 17.977 6.235 27.438 6.705 9.856 16.234 15.803 24.231 15.97a25.656 25.656 0 01-3.944.309l-20.208.051C17.439 63.28 16.708 50.438 17.931 45.422z" fill="#B0D268"/>
  <path d="M15.2 51.999L9.543 65.612c-1.07 2.578.833 5.437 3.659 5.43l13.926-.036C18.919 65.328 15.898 57.901 15.199 52z" fill="#B0D268"/>
  <path d="M23.75 8.75a2.5 2.5 0 115 0 2.5 2.5 0 01-5 0zm11.25 40a2.5 2.5 0 115 0 2.5 2.5 0 01-5 0zM53.888 3.004c.582-.216 1.169.028 1.407.486 3.111 5.991 2.766 10.75.468 15.104-1.41 2.672-2.975 3.619-4.815 4.732-.658.398-1.35.816-2.083 1.343-1.373.985-2.703 2.274-3.845 4.41-1.127 2.107-2.045 4.989-2.69 9.126-.156.993-1.224 1.465-1.982 1.028l-3.625-2.095a1.221 1.221 0 01-.589-1.324c1.941-8.523 3.656-11.493 5.379-13.076.791-.727 1.616-1.198 2.666-1.797l.383-.22c1.221-.701 2.619-1.553 4.189-3.035 2.5-2.36 3.33-4.755 3.23-7.022-.095-2.153-1.034-4.043-1.704-5.393l-.012-.025a.688.688 0 01-.028-.609c.08-.18.259-.373.558-.485l3.093-1.148zm-.83 32.879c.483-1.177 2.15-1.177 2.634 0l.408.992c.145.352.424.63.776.776l.991.407c1.177.484 1.177 2.151 0 2.635l-.991.407a1.424 1.424 0 00-.776.776l-.408.992c-.483 1.177-2.15 1.177-2.634 0l-.408-.992a1.424 1.424 0 00-.776-.776l-.991-.407c-1.177-.484-1.177-2.151 0-2.635l.991-.407a1.43 1.43 0 00.776-.776l.408-.992zM47.36 55.326c1.374-.848 3.42-1.94 5.594-2.52 2.188-.582 4.312-.598 6.028.428 2.068 1.236 3.68 2.152 5.39 2.452 1.777.312 3.507-.057 5.802-.94.642-.246 1.33-.061 1.72.414l2.228 2.725c.554.677.325 1.519-.244 1.818-4.132 2.176-9.352 3.063-15.06-.743-1.376-.917-2.925-.977-4.312-.689-1.374.286-2.696.933-3.78 1.59-1.077.652-2.384.208-2.748-.648l-1.02-2.396c-.26-.608-.049-1.212.403-1.491z" fill="#F1EEE1"/>
</svg>
