<svg xmlns="http://www.w3.org/2000/svg" fill="none" viewBox="0 0 80 80">
  <path fill-rule="evenodd" clip-rule="evenodd" d="M6.25 16.25a5 5 0 015-5h57.5a5 5 0 015 5V55a5 5 0 01-5 5h-2.5v6.272c-.009 2.175-1.271 3.78-2.917 4.525a4.964 4.964 0 01-.99.333 5.11 5.11 0 01-1.455.12H58.3a7.5 7.5 0 01-5.528-2.432L44.687 60H11.25a5 5 0 01-5-5V16.25z" fill="#372A4D"/>
  <path d="M9.434 67.048c.438-1.064 1.944-1.064 2.382 0l.855 2.08c.13.318.383.57.7.701l2.081.856c1.064.437 1.064 1.943 0 2.38l-2.08.856c-.318.13-.57.383-.701.7l-.855 2.081c-.438 1.064-1.944 1.064-2.382 0l-.855-2.08a1.287 1.287 0 00-.7-.701l-2.081-.856c-1.064-.437-1.064-1.943 0-2.38l2.08-.856c.318-.13.57-.383.701-.7l.855-2.081zm66.221-1.231c.448-1.09 1.992-1.09 2.44 0l.107.262c.134.326.393.585.719.719l.262.107c1.09.448 1.09 1.992 0 2.44l-.262.107a1.319 1.319 0 00-.719.719l-.107.262c-.448 1.09-1.992 1.09-2.44 0l-.107-.262a1.319 1.319 0 00-.719-.719l-.262-.107c-1.09-.448-1.09-1.992 0-2.44l.262-.107a1.32 1.32 0 00.719-.719l.107-.262zM73.174 2.055c.441-1.073 1.96-1.073 2.402 0l.484 1.178a1.3 1.3 0 00.707.707l1.178.484c1.073.441 1.073 1.96 0 2.402l-1.178.484c-.32.132-.575.387-.707.707l-.484 1.178c-.441 1.073-1.96 1.073-2.402 0l-.484-1.178a1.298 1.298 0 00-.707-.707l-1.178-.484c-1.073-.441-1.073-1.96 0-2.402l1.178-.484c.32-.132.575-.387.707-.707l.484-1.178z" fill="#372A4D"/>
  <path fill-rule="evenodd" clip-rule="evenodd" d="M51.563 57.5l7.687 10.25c1.441 1.922 4.5.903 4.5-1.5V57.5h5a2.5 2.5 0 002.5-2.5V16.25a2.5 2.5 0 00-2.5-2.5H20a2.5 2.5 0 00-2.5 2.5V55a2.5 2.5 0 002.5 2.5h31.563zM30.625 41.25a5.625 5.625 0 100-11.25 5.625 5.625 0 000 11.25zM50 35.625a5.625 5.625 0 11-11.25 0 5.625 5.625 0 0111.25 0zm8.125 5.625a5.625 5.625 0 100-11.25 5.625 5.625 0 000 11.25z" fill="#7F71DB"/>
  <path d="M33.75 35.625a3.125 3.125 0 11-6.25 0 3.125 3.125 0 016.25 0zm13.75 0a3.125 3.125 0 11-6.25 0 3.125 3.125 0 016.25 0zm13.75 0a3.125 3.125 0 11-6.25 0 3.125 3.125 0 016.25 0z" fill="#F1EEE1"/>
</svg>
