<svg xmlns="http://www.w3.org/2000/svg" fill="none" viewBox="0 0 80 80">
  <path d="M22.837 26.17l8.083-12.126c1.191-1.787 3.022-2.506 4.781-2.383h5.413c.117 0 .233.004.348.01 2.933-.276 5.997 1.886 5.923 5.457l.115 13.081a.67.67 0 00.662.684h16.785c3.834 0 7.598 2.255 8.371 6.01.563 2.728.189 4.912-1.523 7.89a1.473 1.473 0 00.096 1.597c2.606 3.586 2.552 7.24-.163 11.91-.257.442-.258.993.004 1.433 1.797 3.019 2.169 4.758 1.555 7.561-.863 3.942-4.714 6.456-8.75 6.456h-52.93a5.357 5.357 0 01-5.357-5.357V36.607a5.357 5.357 0 015.357-5.357h8.851a18.747 18.747 0 012.379-5.08zM11.934 9.548c.438-1.064 1.944-1.064 2.382 0l.855 2.08c.13.318.383.57.7.701l2.081.855c1.064.438 1.064 1.944 0 2.382l-2.08.855c-.318.13-.57.383-.701.7l-.855 2.081c-.438 1.064-1.944 1.064-2.382 0l-.855-2.08a1.288 1.288 0 00-.7-.701l-2.081-.855c-1.064-.438-1.064-1.944 0-2.382l2.08-.855c.318-.13.57-.383.701-.7l.855-2.081zm44.99-7.493c.441-1.073 1.96-1.073 2.402 0l.484 1.178a1.3 1.3 0 00.707.707l1.178.484c1.073.441 1.073 1.96 0 2.402l-1.178.484c-.32.132-.575.387-.707.707l-.484 1.178c-.441 1.073-1.96 1.073-2.402 0l-.484-1.178a1.298 1.298 0 00-.707-.707l-1.178-.484c-1.073-.441-1.073-1.96 0-2.402l1.178-.484c.32-.132.575-.387.707-.707l.484-1.178zm9.981 18.762c.448-1.09 1.992-1.09 2.44 0l.107.262c.134.326.393.585.719.719l.262.107c1.09.448 1.09 1.992 0 2.44l-.262.107a1.319 1.319 0 00-.719.719l-.107.262c-.448 1.09-1.992 1.09-2.44 0l-.107-.262a1.319 1.319 0 00-.719-.719l-.262-.107c-1.09-.448-1.09-1.992 0-2.44l.262-.107a1.32 1.32 0 00.719-.719l.107-.262z" fill="#372A4D"/>
  <path d="M39.652 15.43l-8.083 12.126a16.25 16.25 0 00-2.73 9.014v32.18a2.5 2.5 0 002.5 2.5h33.199c3.122 0 5.747-1.934 6.307-4.49.258-1.178.27-1.941.12-2.658-.158-.764-.539-1.675-1.381-3.09A3.887 3.887 0 0169.16 60H67.5a1.25 1.25 0 010-2.5h1.328c.31 0 .583-.19.738-.457 1.23-2.115 1.72-3.77 1.738-5.14.02-1.43-.686-3.041-1.301-4.2-.485-.912-1.471-1.453-2.504-1.453a1.25 1.25 0 010-2.5h2.018c.034-.069.07-.136.11-.203.765-1.333 1.155-2.355 1.325-3.256.165-.88.146-1.774-.083-2.885-.464-2.25-2.887-4.013-5.922-4.013H47.782a3.17 3.17 0 01-3.169-3.236l.273-13.082c.06-2.857-3.649-4.022-5.234-1.644z" fill="#7F71DB"/>
  <path d="M15 36.25a2.5 2.5 0 012.5-2.5h6.25a2.5 2.5 0 012.5 2.5v32.5a2.5 2.5 0 01-2.5 2.5H17.5a2.5 2.5 0 01-2.5-2.5v-32.5z" fill="#F1EEE1"/>
</svg>
