<svg xmlns="http://www.w3.org/2000/svg" fill="none" viewBox="0 0 60 60">
  <path d="M53.745 47.015l-7.657-7.66c-.174-.176-.605.014-1.108.377l-.626-.626c3.2-4.157 3.012-10.034-.5-14.015v-2.157l.008.026c0-4.14-3.953-8.02-6.076-10.102l-.484-.481c-6.261-6.26-8.87-6.784-11.003-6.784l-.725-.003H8.834c-.995 0-2.773.755-2.773 2.266v44.298a2.27 2.27 0 002.266 2.27h33.257a2.273 2.273 0 002.27-2.27v-8.012l6.381 6.383c.76.756 4.273-2.747 3.51-3.51z" fill="#27323A"/>
  <path d="M41.44 38.213c-3.215 3.217-8.453 3.22-11.67 0-3.216-3.22-3.216-8.458 0-11.674a8.192 8.192 0 015.834-2.411 8.19 8.19 0 015.835 2.41c3.217 3.22 3.217 8.455 0 11.675z" fill="#fff"/>
  <path d="M35.345 14.33l.507.5c.889.87 2.137 2.106 3.195 3.483-2.081-.778-4.4-.927-6.465-1.01-.064-1.374-.328-4.178-1.259-6.612 1.095.858 2.411 2.025 4.022 3.64z" fill="#79CCBF"/>
  <path d="M8.827 51.658V8.368a.727.727 0 01.038-.016h16.701l.725.004c.366 0 .85.007 1.55.24l.35.366c1.896 1.873 2.58 6.54 2.58 9.221a.92.92 0 00.884.92l.382.015c2.865.111 6.436.248 8.605 2.213l.198.198c.14.44.231.874.246 1.305-4.221-2.426-9.684-1.88-13.292 1.729-4.315 4.315-4.315 11.312 0 15.627 3.61 3.609 9.073 4.158 13.294 1.728v9.74H8.827z" fill="#F4CE73"/>
</svg>
